<svg width="1025" height="231" viewBox="0 0 1025 231" fill="none" xmlns="http://www.w3.org/2000/svg">
<path d="M395.575 175.003C410.998 175.003 423.552 168.712 432.699 158.648L415.302 143.91C410.46 149.302 402.928 152.896 395.754 152.896C381.945 152.896 370.467 140.675 370.467 126.117C370.467 111.919 381.945 99.8773 395.575 99.8773C402.748 99.8773 410.101 103.292 414.764 108.504L432.161 93.5869C423.193 83.8817 410.819 77.7711 395.754 77.7711C368.315 77.7711 345 99.8773 345 126.297C345 152.717 368.135 175.003 395.575 175.003Z" fill="black"/>
<path d="M492.081 175.003C519.52 175.003 542.476 152.717 542.476 126.297C542.476 99.8773 519.52 77.7711 492.081 77.7711C464.462 77.7711 441.327 99.8773 441.327 126.297C441.327 152.717 464.462 175.003 492.081 175.003ZM492.081 152.896C478.092 152.896 466.435 140.675 466.435 126.297C466.435 111.919 478.092 99.8773 492.081 99.8773C505.89 99.8773 517.547 111.919 517.547 126.297C517.547 140.675 505.89 152.896 492.081 152.896Z" fill="black"/>
<path d="M605.746 175.003C633.185 175.003 656.141 152.717 656.141 126.297C656.141 99.8773 633.185 77.7711 605.746 77.7711C578.127 77.7711 554.992 99.8773 554.992 126.297C554.992 152.717 578.127 175.003 605.746 175.003ZM605.746 152.896C591.757 152.896 580.1 140.675 580.1 126.297C580.1 111.919 591.757 99.8773 605.746 99.8773C619.555 99.8773 631.213 111.919 631.213 126.297C631.213 140.675 619.555 152.896 605.746 152.896Z" fill="black"/>
<path d="M731.069 77.7711C718.156 77.7711 707.395 83.3426 700.042 92.868V79.9278H673.858V203.759H700.042V159.726C707.395 169.431 718.156 175.003 731.069 175.003C755.818 175.003 773.752 154.873 773.752 126.297C773.752 97.9003 755.818 77.7711 731.069 77.7711ZM723.536 152.896C710.803 152.896 701.477 143.551 700.042 129.891V122.702C701.477 109.223 710.803 99.8773 723.536 99.8773C738.063 99.8773 748.285 110.841 748.285 126.297C748.285 141.933 738.063 152.896 723.536 152.896Z" fill="black"/>
<path d="M833.681 77.7711C820.768 77.7711 808.034 81.3656 794.942 88.0154L803.73 105.449C811.083 101.675 819.154 98.799 827.762 98.799C843.006 98.799 849.104 107.426 849.104 117.311V119.108C841.213 116.053 832.963 114.435 825.431 114.435C803.91 114.435 786.872 127.016 786.872 145.348C786.872 163.141 802.116 175.003 821.844 175.003C831.887 175.003 842.468 171.049 849.104 163.5V172.846H874.391V117.311C874.391 93.0477 857.892 77.7711 833.681 77.7711ZM827.762 156.85C818.795 156.85 812.159 152.177 812.159 144.629C812.159 137.081 819.692 131.509 829.197 131.509C836.371 131.509 843.186 132.767 849.104 134.924V143.551C847.311 152.177 837.805 156.85 827.762 156.85Z" fill="black"/>
<path d="M922.644 97.1814V79.9278H896.46V172.846H922.644V128.454C922.644 111.02 935.019 99.8773 954.388 99.8773V77.7711C940.22 77.7711 928.742 85.1398 922.644 97.1814Z" fill="black"/>
<path d="M1018.27 149.841C1016.48 151.638 1012.89 152.896 1009.31 152.896C1004.47 152.896 1000.52 148.583 1000.52 142.472V101.135H1020.61V79.9278H1000.52V54.4067H975.412V79.9278H962.678V101.135H975.412V146.606C975.412 163.32 986.889 175.003 1003.21 175.003C1010.74 175.003 1019.17 171.768 1024.55 166.915L1018.27 149.841Z" fill="black"/>
<path fill-rule="evenodd" clip-rule="evenodd" d="M100.113 44.5932C98.4607 42.9535 98.4607 40.295 100.113 38.6552L137.826 1.2298C139.478 -0.409931 142.157 -0.409933 143.809 1.22979L181.522 38.6552C183.175 40.295 183.175 42.9535 181.522 44.5932L143.809 82.0186C142.157 83.6584 139.478 83.6584 137.826 82.0186L100.113 44.5932ZM50.6761 93.6533C49.0238 92.0136 49.0238 89.3551 50.6761 87.7153L88.389 50.2899C90.0413 48.6502 92.7202 48.6502 94.3725 50.2899L132.085 87.7153C133.738 89.3551 133.738 92.0136 132.085 93.6533L94.3725 131.079C92.7202 132.718 90.0413 132.718 88.389 131.079L50.6761 93.6533ZM1.23924 136.775C-0.413081 138.415 -0.413079 141.074 1.23924 142.713L38.9521 180.139C40.6044 181.779 43.2834 181.779 44.9357 180.139L82.6485 142.713C84.3008 141.074 84.3008 138.415 82.6485 136.775L44.9357 99.35C43.2833 97.7103 40.6044 97.7103 38.9521 99.35L1.23924 136.775ZM198.987 142.713C197.334 141.074 197.334 138.415 198.987 136.775L236.699 99.35C238.352 97.7103 241.031 97.7103 242.683 99.35L280.396 136.775C282.048 138.415 282.048 141.074 280.396 142.713L242.683 180.139C241.031 181.779 238.352 181.779 236.699 180.139L198.987 142.713ZM149.55 185.836C147.898 187.475 147.898 190.134 149.55 191.774L187.263 229.199C188.915 230.839 191.594 230.839 193.246 229.199L230.959 191.774C232.611 190.134 232.611 187.475 230.959 185.836L193.246 148.41C191.594 146.77 188.915 146.77 187.263 148.41L149.55 185.836ZM50.6761 191.774C49.0238 190.134 49.0238 187.475 50.6761 185.836L88.389 148.41C90.0413 146.77 92.7202 146.77 94.3725 148.41L132.085 185.836C133.738 187.475 133.738 190.134 132.085 191.774L94.3725 229.199C92.7202 230.839 90.0413 230.839 88.389 229.199L50.6761 191.774ZM100.113 136.775C98.4607 138.415 98.4607 141.074 100.113 142.713L137.826 180.139C139.478 181.779 142.157 181.779 143.809 180.139L181.522 142.713C183.175 141.074 183.175 138.415 181.522 136.775L143.809 99.35C142.157 97.7103 139.478 97.7103 137.826 99.35L100.113 136.775Z" fill="url(#paint0_linear)"/>
<defs>
<linearGradient id="paint0_linear" x1="77.5517" y1="200.109" x2="170.629" y2="116.346" gradientUnits="userSpaceOnUse">
<stop stop-color="#7D27C7"/>
<stop offset="1" stop-color="#F80384"/>
</linearGradient>
</defs>
</svg>
