<svg width="24" height="21" viewBox="0 0 24 21" fill="none" xmlns="http://www.w3.org/2000/svg">
<path d="M11.28 0.289164L0.3 11.1552C0.205659 11.2481 0.130595 11.3587 0.0791135 11.4808C0.0276323 11.6028 0.000746999 11.7337 0 11.8662L0 19.0232C4.22243e-05 19.2209 0.0587141 19.4142 0.168598 19.5786C0.278483 19.743 0.434646 19.8712 0.617345 19.9468C0.800045 20.0225 1.00108 20.0423 1.19503 20.0037C1.38898 19.9652 1.56715 19.87 1.707 19.7302L11.807 9.65016C11.8539 9.60345 11.9173 9.57722 11.9835 9.57722C12.0497 9.57722 12.1131 9.60345 12.16 9.65016L22.294 19.7272C22.434 19.8667 22.6123 19.9617 22.8063 20C23.0002 20.0383 23.2012 20.0183 23.3838 19.9424C23.5663 19.8665 23.7223 19.7382 23.832 19.5737C23.9417 19.4092 24.0002 19.2159 24 19.0182V11.8582C23.9997 11.7255 23.973 11.5943 23.9215 11.472C23.87 11.3498 23.7947 11.239 23.7 11.1462L12.686 0.288162C12.4987 0.103258 12.246 -0.000333786 11.9828 -0.000146866C11.7196 4.00543e-05 11.4671 0.103994 11.28 0.289164Z" fill="black"/>
</svg>
