<svg width="24" height="24" viewBox="0 0 24 24" fill="none" xmlns="http://www.w3.org/2000/svg">
<path d="M23.1459 5.40002L20.3539 2.60002C20.3075 2.55346 20.2523 2.51651 20.1915 2.49131C20.1308 2.4661 20.0657 2.45312 19.9999 2.45312C19.9341 2.45312 19.869 2.4661 19.8083 2.49131C19.7475 2.51651 19.6924 2.55346 19.6459 2.60002L7.85391 14.4C7.80747 14.4466 7.75229 14.4835 7.69155 14.5087C7.6308 14.5339 7.56568 14.5469 7.49991 14.5469C7.43415 14.5469 7.36902 14.5339 7.30828 14.5087C7.24753 14.4835 7.19236 14.4466 7.14591 14.4L4.35391 11.6C4.30747 11.5535 4.25229 11.5165 4.19155 11.4913C4.1308 11.4661 4.06568 11.4531 3.99991 11.4531C3.93415 11.4531 3.86902 11.4661 3.80828 11.4913C3.74753 11.5165 3.69236 11.5535 3.64591 11.6L0.853913 14.4C0.760177 14.4938 0.70752 14.6209 0.70752 14.7535C0.70752 14.8861 0.760177 15.0133 0.853913 15.107L7.14591 21.4C7.19236 21.4466 7.24753 21.4835 7.30828 21.5087C7.36902 21.5339 7.43415 21.5469 7.49991 21.5469C7.56568 21.5469 7.6308 21.5339 7.69155 21.5087C7.75229 21.4835 7.80747 21.4466 7.85391 21.4L23.1459 6.10002C23.2375 6.00655 23.2888 5.8809 23.2888 5.75002C23.2888 5.61914 23.2375 5.49348 23.1459 5.40002Z" fill="#00CC14"/>
</svg>
