<svg width="24" height="24" viewBox="0 0 24 24" fill="none" xmlns="http://www.w3.org/2000/svg">
<path d="M22.6642 5.57792C22.9454 5.29663 23.1033 4.91517 23.1033 4.51742C23.1033 4.11967 22.9454 3.73821 22.6642 3.45692L20.5432 1.33592C20.4039 1.19653 20.2385 1.08596 20.0564 1.01051C19.8743 0.935071 19.6792 0.89624 19.4822 0.89624C19.2851 0.89624 19.09 0.935071 18.9079 1.01051C18.7259 1.08596 18.5605 1.19653 18.4212 1.33592L12.1772 7.58092C12.1301 7.6277 12.0665 7.65395 12.0002 7.65395C11.9338 7.65395 11.8702 7.6277 11.8232 7.58092L5.57915 1.33592C5.43985 1.19653 5.27445 1.08596 5.0924 1.01051C4.91035 0.935071 4.71522 0.89624 4.51815 0.89624C4.32109 0.89624 4.12596 0.935071 3.94391 1.01051C3.76185 1.08596 3.59645 1.19653 3.45715 1.33592L1.33615 3.45692C1.05495 3.73821 0.896973 4.11967 0.896973 4.51742C0.896973 4.91517 1.05495 5.29663 1.33615 5.57792L7.58115 11.8229C7.62769 11.8701 7.65378 11.9337 7.65378 11.9999C7.65378 12.0662 7.62769 12.1298 7.58115 12.1769L1.33615 18.4219C1.05495 18.7032 0.896973 19.0847 0.896973 19.4824C0.896973 19.8802 1.05495 20.2616 1.33615 20.5429L3.45715 22.6639C3.59645 22.8033 3.76185 22.9139 3.94391 22.9893C4.12596 23.0648 4.32109 23.1036 4.51815 23.1036C4.71522 23.1036 4.91035 23.0648 5.0924 22.9893C5.27445 22.9139 5.43985 22.8033 5.57915 22.6639L11.8232 16.4189C11.8702 16.3721 11.9338 16.3459 12.0002 16.3459C12.0665 16.3459 12.1301 16.3721 12.1772 16.4189L18.4212 22.6639C18.5605 22.8033 18.7259 22.9139 18.9079 22.9893C19.09 23.0648 19.2851 23.1036 19.4822 23.1036C19.6792 23.1036 19.8743 23.0648 20.0564 22.9893C20.2385 22.9139 20.4039 22.8033 20.5432 22.6639L22.6642 20.5429C22.9454 20.2616 23.1033 19.8802 23.1033 19.4824C23.1033 19.0847 22.9454 18.7032 22.6642 18.4219L16.4192 12.1769C16.3726 12.1298 16.3465 12.0662 16.3465 11.9999C16.3465 11.9337 16.3726 11.8701 16.4192 11.8229L22.6642 5.57792Z" fill="#F11717"/>
</svg>
